<svg width="440" height="35" viewBox="0 0 440 35" fill="none" xmlns="http://www.w3.org/2000/svg">
<path d="M220 35C341.503 35 440 27.165 440 17.5C440 7.83502 341.503 0 220 0C98.4974 0 0 7.83502 0 17.5C0 27.165 98.4974 35 220 35Z" fill="#FFDDD7"/>
<path d="M273.222 13.125C269.964 13.125 266.728 13.2341 264.234 13.4555L190.248 20.0204L164.725 17.7557C159.737 17.3131 151.738 17.3131 146.75 17.7557C141.75 18.1983 141.75 18.9125 146.75 19.3551L181.26 22.4173C186.248 22.8609 194.247 22.8609 199.235 22.4173L282.259 15.0548C287.247 14.6122 287.247 13.8981 282.259 13.4555C279.759 13.2341 276.479 13.125 273.222 13.125Z" fill="#002E8C"/>
<path d="M38.9834 21H37.7119V12.5713L35.1621 13.5078V12.3594L38.7852 10.999H38.9834V21ZM42.7773 20.3369C42.7773 20.1182 42.8411 19.9359 42.9688 19.79C43.1009 19.6442 43.2969 19.5713 43.5566 19.5713C43.8164 19.5713 44.0124 19.6442 44.1445 19.79C44.2812 19.9359 44.3496 20.1182 44.3496 20.3369C44.3496 20.5465 44.2812 20.722 44.1445 20.8633C44.0124 21.0046 43.8164 21.0752 43.5566 21.0752C43.2969 21.0752 43.1009 21.0046 42.9688 20.8633C42.8411 20.722 42.7773 20.5465 42.7773 20.3369ZM42.7842 14.3008C42.7842 14.082 42.848 13.8997 42.9756 13.7539C43.1077 13.6081 43.3037 13.5352 43.5635 13.5352C43.8232 13.5352 44.0192 13.6081 44.1514 13.7539C44.2881 13.8997 44.3564 14.082 44.3564 14.3008C44.3564 14.5104 44.2881 14.6859 44.1514 14.8271C44.0192 14.9684 43.8232 15.0391 43.5635 15.0391C43.3037 15.0391 43.1077 14.9684 42.9756 14.8271C42.848 14.6859 42.7842 14.5104 42.7842 14.3008ZM50.2354 21H48.9639V12.5713L46.4141 13.5078V12.3594L50.0371 10.999H50.2354V21ZM60.5098 20.1045C60.9609 20.1045 61.3551 19.9678 61.6924 19.6943C62.0296 19.4209 62.2165 19.0791 62.2529 18.6689H63.4492C63.4264 19.0928 63.2806 19.4961 63.0117 19.8789C62.7428 20.2617 62.3828 20.5671 61.9316 20.7949C61.485 21.0228 61.0111 21.1367 60.5098 21.1367C59.5026 21.1367 58.7005 20.8018 58.1035 20.1318C57.5111 19.4574 57.2148 18.5368 57.2148 17.3701V17.1582C57.2148 16.4382 57.347 15.7979 57.6113 15.2373C57.8757 14.6768 58.2539 14.2415 58.7461 13.9316C59.2428 13.6217 59.8285 13.4668 60.5029 13.4668C61.3324 13.4668 62.0205 13.7152 62.5674 14.2119C63.1188 14.7087 63.4128 15.3535 63.4492 16.1465H62.2529C62.2165 15.668 62.0342 15.276 61.7061 14.9707C61.3825 14.6608 60.9814 14.5059 60.5029 14.5059C59.8604 14.5059 59.3613 14.7383 59.0059 15.2031C58.6549 15.6634 58.4795 16.3311 58.4795 17.2061V17.4453C58.4795 18.2975 58.6549 18.9538 59.0059 19.4141C59.3568 19.8743 59.8581 20.1045 60.5098 20.1045ZM64.5361 17.2334C64.5361 16.5088 64.6774 15.8571 64.96 15.2783C65.2471 14.6995 65.6436 14.2529 66.1494 13.9385C66.6598 13.624 67.2409 13.4668 67.8926 13.4668C68.8997 13.4668 69.7132 13.8154 70.333 14.5127C70.9574 15.21 71.2695 16.1374 71.2695 17.2949V17.3838C71.2695 18.1038 71.1305 18.751 70.8525 19.3252C70.5791 19.8949 70.1849 20.3392 69.6699 20.6582C69.1595 20.9772 68.5716 21.1367 67.9062 21.1367C66.9036 21.1367 66.0902 20.7881 65.4658 20.0908C64.846 19.3936 64.5361 18.4707 64.5361 17.3223V17.2334ZM65.8076 17.3838C65.8076 18.2041 65.9967 18.8626 66.375 19.3594C66.7578 19.8561 67.2682 20.1045 67.9062 20.1045C68.5488 20.1045 69.0592 19.8538 69.4375 19.3525C69.8158 18.8467 70.0049 18.1403 70.0049 17.2334C70.0049 16.4222 69.8112 15.766 69.4238 15.2646C69.041 14.7588 68.5306 14.5059 67.8926 14.5059C67.2682 14.5059 66.7646 14.7542 66.3818 15.251C65.999 15.7477 65.8076 16.4587 65.8076 17.3838ZM77.4219 21C77.349 20.8542 77.2897 20.5944 77.2441 20.2207C76.6562 20.8314 75.9544 21.1367 75.1387 21.1367C74.4095 21.1367 73.8102 20.9316 73.3408 20.5215C72.876 20.1068 72.6436 19.5827 72.6436 18.9492C72.6436 18.179 72.9352 17.582 73.5186 17.1582C74.1064 16.7298 74.9313 16.5156 75.9932 16.5156H77.2236V15.9346C77.2236 15.4925 77.0915 15.1416 76.8271 14.8818C76.5628 14.6175 76.1732 14.4854 75.6582 14.4854C75.207 14.4854 74.8288 14.5993 74.5234 14.8271C74.2181 15.055 74.0654 15.3307 74.0654 15.6543H72.7939C72.7939 15.2852 72.9238 14.9297 73.1836 14.5879C73.4479 14.2415 73.8034 13.9681 74.25 13.7676C74.7012 13.5671 75.1956 13.4668 75.7334 13.4668C76.5856 13.4668 77.2533 13.681 77.7363 14.1094C78.2194 14.5332 78.4701 15.1188 78.4883 15.8662V19.2705C78.4883 19.9495 78.5749 20.4896 78.748 20.8906V21H77.4219ZM75.3232 20.0361C75.7197 20.0361 76.0957 19.9336 76.4512 19.7285C76.8066 19.5234 77.0641 19.2568 77.2236 18.9287V17.4111H76.2324C74.6829 17.4111 73.9082 17.8646 73.9082 18.7715C73.9082 19.168 74.0404 19.4779 74.3047 19.7012C74.569 19.9245 74.9085 20.0361 75.3232 20.0361ZM83.4375 20.1045C83.8887 20.1045 84.2829 19.9678 84.6201 19.6943C84.9574 19.4209 85.1442 19.0791 85.1807 18.6689H86.377C86.3542 19.0928 86.2083 19.4961 85.9395 19.8789C85.6706 20.2617 85.3105 20.5671 84.8594 20.7949C84.4128 21.0228 83.9388 21.1367 83.4375 21.1367C82.4303 21.1367 81.6283 20.8018 81.0312 20.1318C80.4388 19.4574 80.1426 18.5368 80.1426 17.3701V17.1582C80.1426 16.4382 80.2747 15.7979 80.5391 15.2373C80.8034 14.6768 81.1816 14.2415 81.6738 13.9316C82.1706 13.6217 82.7562 13.4668 83.4307 13.4668C84.2601 13.4668 84.9482 13.7152 85.4951 14.2119C86.0465 14.7087 86.3405 15.3535 86.377 16.1465H85.1807C85.1442 15.668 84.9619 15.276 84.6338 14.9707C84.3102 14.6608 83.9092 14.5059 83.4307 14.5059C82.7881 14.5059 82.2891 14.7383 81.9336 15.2031C81.5827 15.6634 81.4072 16.3311 81.4072 17.2061V17.4453C81.4072 18.2975 81.5827 18.9538 81.9336 19.4141C82.2845 19.8743 82.7858 20.1045 83.4375 20.1045ZM89.0635 14.499C89.624 13.8109 90.3532 13.4668 91.251 13.4668C92.8141 13.4668 93.6025 14.3486 93.6162 16.1123V21H92.3516V16.1055C92.347 15.5723 92.224 15.1781 91.9824 14.9229C91.7454 14.6676 91.374 14.54 90.8682 14.54C90.458 14.54 90.098 14.6494 89.7881 14.8682C89.4782 15.0869 89.2367 15.374 89.0635 15.7295V21H87.7988V10.5H89.0635V14.499ZM96.8838 21H95.6191V13.6035H96.8838V21ZM95.5166 11.6416C95.5166 11.4365 95.5781 11.2633 95.7012 11.1221C95.8288 10.9808 96.0156 10.9102 96.2617 10.9102C96.5078 10.9102 96.6947 10.9808 96.8223 11.1221C96.9499 11.2633 97.0137 11.4365 97.0137 11.6416C97.0137 11.8467 96.9499 12.0176 96.8223 12.1543C96.6947 12.291 96.5078 12.3594 96.2617 12.3594C96.0156 12.3594 95.8288 12.291 95.7012 12.1543C95.5781 12.0176 95.5166 11.8467 95.5166 11.6416ZM100.11 13.6035L100.151 14.5332C100.716 13.8223 101.455 13.4668 102.366 13.4668C103.929 13.4668 104.718 14.3486 104.731 16.1123V21H103.467V16.1055C103.462 15.5723 103.339 15.1781 103.098 14.9229C102.861 14.6676 102.489 14.54 101.983 14.54C101.573 14.54 101.213 14.6494 100.903 14.8682C100.593 15.0869 100.352 15.374 100.179 15.7295V21H98.9141V13.6035H100.11ZM106.338 17.2402C106.338 16.0872 106.604 15.1712 107.138 14.4922C107.671 13.8086 108.377 13.4668 109.257 13.4668C110.159 13.4668 110.863 13.7858 111.369 14.4238L111.431 13.6035H112.586V20.8223C112.586 21.7793 112.301 22.5335 111.731 23.085C111.166 23.6364 110.405 23.9121 109.448 23.9121C108.915 23.9121 108.393 23.7982 107.883 23.5703C107.372 23.3424 106.983 23.0303 106.714 22.6338L107.37 21.875C107.912 22.5449 108.576 22.8799 109.359 22.8799C109.975 22.8799 110.453 22.7067 110.795 22.3604C111.141 22.014 111.314 21.5264 111.314 20.8975V20.2617C110.809 20.8451 110.118 21.1367 109.243 21.1367C108.377 21.1367 107.675 20.7881 107.138 20.0908C106.604 19.3936 106.338 18.4434 106.338 17.2402ZM107.609 17.3838C107.609 18.2178 107.78 18.874 108.122 19.3525C108.464 19.8265 108.942 20.0635 109.558 20.0635C110.355 20.0635 110.941 19.7012 111.314 18.9766V15.5996C110.927 14.8932 110.346 14.54 109.571 14.54C108.956 14.54 108.475 14.7793 108.129 15.2578C107.783 15.7363 107.609 16.445 107.609 17.3838Z" fill="#041011"/>
</svg>
